<svg xmlns="http://www.w3.org/2000/svg" xmlns:xlink="http://www.w3.org/1999/xlink" width="500" zoomAndPan="magnify" viewBox="0 0 375 374.999991" height="500" preserveAspectRatio="xMidYMid meet" version="1.0"><defs><g/><linearGradient x1="0" gradientTransform="matrix(0.75, 0, 0, 0.75, 0.0000045, 0)" y1="250" x2="499.999979" gradientUnits="userSpaceOnUse" y2="250" id="4a19225c9f"><stop stop-opacity="1" stop-color="rgb(0%, 0%, 0%)" offset="0"/><stop stop-opacity="1" stop-color="rgb(0.175476%, 0.175476%, 0.175476%)" offset="0.0078125"/><stop stop-opacity="1" stop-color="rgb(0.526428%, 0.526428%, 0.526428%)" offset="0.015625"/><stop stop-opacity="1" stop-color="rgb(0.878906%, 0.878906%, 0.878906%)" offset="0.0234375"/><stop stop-opacity="1" stop-color="rgb(1.231384%, 1.231384%, 1.231384%)" offset="0.03125"/><stop stop-opacity="1" stop-color="rgb(1.583862%, 1.583862%, 1.583862%)" offset="0.0390625"/><stop stop-opacity="1" stop-color="rgb(1.93634%, 1.93634%, 1.93634%)" offset="0.046875"/><stop stop-opacity="1" stop-color="rgb(2.288818%, 2.288818%, 2.288818%)" offset="0.0546875"/><stop stop-opacity="1" stop-color="rgb(2.641296%, 2.641296%, 2.641296%)" offset="0.0625"/><stop stop-opacity="1" stop-color="rgb(2.993774%, 2.993774%, 2.993774%)" offset="0.0703125"/><stop stop-opacity="1" stop-color="rgb(3.346252%, 3.346252%, 3.346252%)" offset="0.078125"/><stop stop-opacity="1" stop-color="rgb(3.69873%, 3.69873%, 3.69873%)" offset="0.0859375"/><stop stop-opacity="1" stop-color="rgb(4.051208%, 4.051208%, 4.051208%)" offset="0.09375"/><stop stop-opacity="1" stop-color="rgb(4.402161%, 4.402161%, 4.402161%)" offset="0.101562"/><stop stop-opacity="1" stop-color="rgb(4.754639%, 4.754639%, 4.754639%)" offset="0.109375"/><stop stop-opacity="1" stop-color="rgb(5.107117%, 5.107117%, 5.107117%)" offset="0.117188"/><stop stop-opacity="1" stop-color="rgb(5.459595%, 5.459595%, 5.459595%)" offset="0.125"/><stop stop-opacity="1" stop-color="rgb(5.812073%, 5.812073%, 5.812073%)" offset="0.132812"/><stop stop-opacity="1" stop-color="rgb(6.164551%, 6.164551%, 6.164551%)" offset="0.140625"/><stop stop-opacity="1" stop-color="rgb(6.517029%, 6.517029%, 6.517029%)" offset="0.148437"/><stop stop-opacity="1" stop-color="rgb(6.869507%, 6.869507%, 6.869507%)" offset="0.15625"/><stop stop-opacity="1" stop-color="rgb(7.221985%, 7.221985%, 7.221985%)" offset="0.164062"/><stop stop-opacity="1" stop-color="rgb(7.574463%, 7.574463%, 7.574463%)" offset="0.171875"/><stop stop-opacity="1" stop-color="rgb(7.926941%, 7.926941%, 7.926941%)" offset="0.179687"/><stop stop-opacity="1" stop-color="rgb(8.277893%, 8.277893%, 8.277893%)" offset="0.1875"/><stop stop-opacity="1" stop-color="rgb(8.630371%, 8.630371%, 8.630371%)" offset="0.195312"/><stop stop-opacity="1" stop-color="rgb(8.982849%, 8.982849%, 8.982849%)" offset="0.203125"/><stop stop-opacity="1" stop-color="rgb(9.335327%, 9.335327%, 9.335327%)" offset="0.210938"/><stop stop-opacity="1" stop-color="rgb(9.687805%, 9.687805%, 9.687805%)" offset="0.21875"/><stop stop-opacity="1" stop-color="rgb(10.040283%, 10.040283%, 10.040283%)" offset="0.226562"/><stop stop-opacity="1" stop-color="rgb(10.392761%, 10.392761%, 10.392761%)" offset="0.234375"/><stop stop-opacity="1" stop-color="rgb(10.745239%, 10.745239%, 10.745239%)" offset="0.242188"/><stop stop-opacity="1" stop-color="rgb(11.097717%, 11.097717%, 11.097717%)" offset="0.25"/><stop stop-opacity="1" stop-color="rgb(11.450195%, 11.450195%, 11.450195%)" offset="0.257812"/><stop stop-opacity="1" stop-color="rgb(11.802673%, 11.802673%, 11.802673%)" offset="0.265625"/><stop stop-opacity="1" stop-color="rgb(12.155151%, 12.155151%, 12.155151%)" offset="0.273437"/><stop stop-opacity="1" stop-color="rgb(12.506104%, 12.506104%, 12.506104%)" offset="0.28125"/><stop stop-opacity="1" stop-color="rgb(12.858582%, 12.858582%, 12.858582%)" offset="0.289062"/><stop stop-opacity="1" stop-color="rgb(13.21106%, 13.21106%, 13.21106%)" offset="0.296875"/><stop stop-opacity="1" stop-color="rgb(13.563538%, 13.563538%, 13.563538%)" offset="0.304687"/><stop stop-opacity="1" stop-color="rgb(13.916016%, 13.916016%, 13.916016%)" offset="0.3125"/><stop stop-opacity="1" stop-color="rgb(14.268494%, 14.268494%, 14.268494%)" offset="0.320312"/><stop stop-opacity="1" stop-color="rgb(14.620972%, 14.620972%, 14.620972%)" offset="0.328125"/><stop stop-opacity="1" stop-color="rgb(14.97345%, 14.97345%, 14.97345%)" offset="0.335937"/><stop stop-opacity="1" stop-color="rgb(15.325928%, 15.325928%, 15.325928%)" offset="0.34375"/><stop stop-opacity="1" stop-color="rgb(15.678406%, 15.678406%, 15.678406%)" offset="0.351562"/><stop stop-opacity="1" stop-color="rgb(16.030884%, 16.030884%, 16.030884%)" offset="0.359375"/><stop stop-opacity="1" stop-color="rgb(16.381836%, 16.381836%, 16.381836%)" offset="0.367187"/><stop stop-opacity="1" stop-color="rgb(16.734314%, 16.734314%, 16.734314%)" offset="0.375"/><stop stop-opacity="1" stop-color="rgb(17.086792%, 17.086792%, 17.086792%)" offset="0.382812"/><stop stop-opacity="1" stop-color="rgb(17.43927%, 17.43927%, 17.43927%)" offset="0.390625"/><stop stop-opacity="1" stop-color="rgb(17.791748%, 17.791748%, 17.791748%)" offset="0.398438"/><stop stop-opacity="1" stop-color="rgb(18.144226%, 18.144226%, 18.144226%)" offset="0.40625"/><stop stop-opacity="1" stop-color="rgb(18.496704%, 18.496704%, 18.496704%)" offset="0.414062"/><stop stop-opacity="1" stop-color="rgb(18.849182%, 18.849182%, 18.849182%)" offset="0.421875"/><stop stop-opacity="1" stop-color="rgb(19.20166%, 19.20166%, 19.20166%)" offset="0.429688"/><stop stop-opacity="1" stop-color="rgb(19.554138%, 19.554138%, 19.554138%)" offset="0.4375"/><stop stop-opacity="1" stop-color="rgb(19.906616%, 19.906616%, 19.906616%)" offset="0.445312"/><stop stop-opacity="1" stop-color="rgb(20.257568%, 20.257568%, 20.257568%)" offset="0.453125"/><stop stop-opacity="1" stop-color="rgb(20.610046%, 20.610046%, 20.610046%)" offset="0.460938"/><stop stop-opacity="1" stop-color="rgb(20.962524%, 20.962524%, 20.962524%)" offset="0.46875"/><stop stop-opacity="1" stop-color="rgb(21.315002%, 21.315002%, 21.315002%)" offset="0.476562"/><stop stop-opacity="1" stop-color="rgb(21.66748%, 21.66748%, 21.66748%)" offset="0.484375"/><stop stop-opacity="1" stop-color="rgb(22.019958%, 22.019958%, 22.019958%)" offset="0.492188"/><stop stop-opacity="1" stop-color="rgb(22.372437%, 22.372437%, 22.372437%)" offset="0.5"/><stop stop-opacity="1" stop-color="rgb(22.724915%, 22.724915%, 22.724915%)" offset="0.507812"/><stop stop-opacity="1" stop-color="rgb(23.077393%, 23.077393%, 23.077393%)" offset="0.515625"/><stop stop-opacity="1" stop-color="rgb(23.429871%, 23.429871%, 23.429871%)" offset="0.523437"/><stop stop-opacity="1" stop-color="rgb(23.782349%, 23.782349%, 23.782349%)" offset="0.53125"/><stop stop-opacity="1" stop-color="rgb(24.134827%, 24.134827%, 24.134827%)" offset="0.539062"/><stop stop-opacity="1" stop-color="rgb(24.485779%, 24.485779%, 24.485779%)" offset="0.546875"/><stop stop-opacity="1" stop-color="rgb(24.838257%, 24.838257%, 24.838257%)" offset="0.554687"/><stop stop-opacity="1" stop-color="rgb(25.190735%, 25.190735%, 25.190735%)" offset="0.5625"/><stop stop-opacity="1" stop-color="rgb(25.543213%, 25.543213%, 25.543213%)" offset="0.570312"/><stop stop-opacity="1" stop-color="rgb(25.895691%, 25.895691%, 25.895691%)" offset="0.578125"/><stop stop-opacity="1" stop-color="rgb(26.248169%, 26.248169%, 26.248169%)" offset="0.585937"/><stop stop-opacity="1" stop-color="rgb(26.600647%, 26.600647%, 26.600647%)" offset="0.59375"/><stop stop-opacity="1" stop-color="rgb(26.953125%, 26.953125%, 26.953125%)" offset="0.601562"/><stop stop-opacity="1" stop-color="rgb(27.305603%, 27.305603%, 27.305603%)" offset="0.609375"/><stop stop-opacity="1" stop-color="rgb(27.658081%, 27.658081%, 27.658081%)" offset="0.617187"/><stop stop-opacity="1" stop-color="rgb(28.010559%, 28.010559%, 28.010559%)" offset="0.625"/><stop stop-opacity="1" stop-color="rgb(28.361511%, 28.361511%, 28.361511%)" offset="0.632812"/><stop stop-opacity="1" stop-color="rgb(28.713989%, 28.713989%, 28.713989%)" offset="0.640625"/><stop stop-opacity="1" stop-color="rgb(29.066467%, 29.066467%, 29.066467%)" offset="0.648437"/><stop stop-opacity="1" stop-color="rgb(29.418945%, 29.418945%, 29.418945%)" offset="0.65625"/><stop stop-opacity="1" stop-color="rgb(29.771423%, 29.771423%, 29.771423%)" offset="0.664062"/><stop stop-opacity="1" stop-color="rgb(30.123901%, 30.123901%, 30.123901%)" offset="0.671875"/><stop stop-opacity="1" stop-color="rgb(30.476379%, 30.476379%, 30.476379%)" offset="0.679687"/><stop stop-opacity="1" stop-color="rgb(30.828857%, 30.828857%, 30.828857%)" offset="0.6875"/><stop stop-opacity="1" stop-color="rgb(31.181335%, 31.181335%, 31.181335%)" offset="0.695312"/><stop stop-opacity="1" stop-color="rgb(31.533813%, 31.533813%, 31.533813%)" offset="0.703125"/><stop stop-opacity="1" stop-color="rgb(31.886292%, 31.886292%, 31.886292%)" offset="0.710937"/><stop stop-opacity="1" stop-color="rgb(32.237244%, 32.237244%, 32.237244%)" offset="0.71875"/><stop stop-opacity="1" stop-color="rgb(32.589722%, 32.589722%, 32.589722%)" offset="0.726562"/><stop stop-opacity="1" stop-color="rgb(32.9422%, 32.9422%, 32.9422%)" offset="0.734375"/><stop stop-opacity="1" stop-color="rgb(33.294678%, 33.294678%, 33.294678%)" offset="0.742187"/><stop stop-opacity="1" stop-color="rgb(33.647156%, 33.647156%, 33.647156%)" offset="0.75"/><stop stop-opacity="1" stop-color="rgb(33.999634%, 33.999634%, 33.999634%)" offset="0.757812"/><stop stop-opacity="1" stop-color="rgb(34.352112%, 34.352112%, 34.352112%)" offset="0.765625"/><stop stop-opacity="1" stop-color="rgb(34.70459%, 34.70459%, 34.70459%)" offset="0.773438"/><stop stop-opacity="1" stop-color="rgb(35.057068%, 35.057068%, 35.057068%)" offset="0.78125"/><stop stop-opacity="1" stop-color="rgb(35.409546%, 35.409546%, 35.409546%)" offset="0.789062"/><stop stop-opacity="1" stop-color="rgb(35.762024%, 35.762024%, 35.762024%)" offset="0.796875"/><stop stop-opacity="1" stop-color="rgb(36.114502%, 36.114502%, 36.114502%)" offset="0.804688"/><stop stop-opacity="1" stop-color="rgb(36.465454%, 36.465454%, 36.465454%)" offset="0.8125"/><stop stop-opacity="1" stop-color="rgb(36.817932%, 36.817932%, 36.817932%)" offset="0.820312"/><stop stop-opacity="1" stop-color="rgb(37.17041%, 37.17041%, 37.17041%)" offset="0.828125"/><stop stop-opacity="1" stop-color="rgb(37.522888%, 37.522888%, 37.522888%)" offset="0.835938"/><stop stop-opacity="1" stop-color="rgb(37.875366%, 37.875366%, 37.875366%)" offset="0.84375"/><stop stop-opacity="1" stop-color="rgb(38.227844%, 38.227844%, 38.227844%)" offset="0.851562"/><stop stop-opacity="1" stop-color="rgb(38.580322%, 38.580322%, 38.580322%)" offset="0.859375"/><stop stop-opacity="1" stop-color="rgb(38.9328%, 38.9328%, 38.9328%)" offset="0.867188"/><stop stop-opacity="1" stop-color="rgb(39.285278%, 39.285278%, 39.285278%)" offset="0.875"/><stop stop-opacity="1" stop-color="rgb(39.637756%, 39.637756%, 39.637756%)" offset="0.882812"/><stop stop-opacity="1" stop-color="rgb(39.990234%, 39.990234%, 39.990234%)" offset="0.890625"/><stop stop-opacity="1" stop-color="rgb(40.341187%, 40.341187%, 40.341187%)" offset="0.898438"/><stop stop-opacity="1" stop-color="rgb(40.693665%, 40.693665%, 40.693665%)" offset="0.90625"/><stop stop-opacity="1" stop-color="rgb(41.046143%, 41.046143%, 41.046143%)" offset="0.914062"/><stop stop-opacity="1" stop-color="rgb(41.398621%, 41.398621%, 41.398621%)" offset="0.921875"/><stop stop-opacity="1" stop-color="rgb(41.751099%, 41.751099%, 41.751099%)" offset="0.929688"/><stop stop-opacity="1" stop-color="rgb(42.103577%, 42.103577%, 42.103577%)" offset="0.9375"/><stop stop-opacity="1" stop-color="rgb(42.456055%, 42.456055%, 42.456055%)" offset="0.945312"/><stop stop-opacity="1" stop-color="rgb(42.808533%, 42.808533%, 42.808533%)" offset="0.953125"/><stop stop-opacity="1" stop-color="rgb(43.161011%, 43.161011%, 43.161011%)" offset="0.960938"/><stop stop-opacity="1" stop-color="rgb(43.513489%, 43.513489%, 43.513489%)" offset="0.96875"/><stop stop-opacity="1" stop-color="rgb(43.865967%, 43.865967%, 43.865967%)" offset="0.976562"/><stop stop-opacity="1" stop-color="rgb(44.216919%, 44.216919%, 44.216919%)" offset="0.984375"/><stop stop-opacity="1" stop-color="rgb(44.569397%, 44.569397%, 44.569397%)" offset="0.992188"/><stop stop-opacity="1" stop-color="rgb(44.921875%, 44.921875%, 44.921875%)" offset="1"/></linearGradient><clipPath id="4b9e7d6abb"><path d="M 61.28125 230.886719 L 189.621094 230.886719 L 189.621094 241.609375 L 61.28125 241.609375 Z M 61.28125 230.886719 " clip-rule="nonzero"/></clipPath><clipPath id="7bce8a7a61"><path d="M 222 224.359375 L 226 224.359375 L 226 230 L 222 230 Z M 222 224.359375 " clip-rule="nonzero"/></clipPath><clipPath id="53ece05ecb"><path d="M 251 224.359375 L 253 224.359375 L 253 230 L 251 230 Z M 251 224.359375 " clip-rule="nonzero"/></clipPath><clipPath id="af7ebee0a1"><path d="M 226 224.359375 L 230 224.359375 L 230 230 L 226 230 Z M 226 224.359375 " clip-rule="nonzero"/></clipPath><clipPath id="22bec13be4"><path d="M 230 224.359375 L 234 224.359375 L 234 230 L 230 230 Z M 230 224.359375 " clip-rule="nonzero"/></clipPath><clipPath id="1d0c85615e"><path d="M 247 224.359375 L 249 224.359375 L 249 230 L 247 230 Z M 247 224.359375 " clip-rule="nonzero"/></clipPath><clipPath id="9373374772"><path d="M 238 224.359375 L 242 224.359375 L 242 230 L 238 230 Z M 238 224.359375 " clip-rule="nonzero"/></clipPath><clipPath id="ea06c3754a"><path d="M 242 224.359375 L 245 224.359375 L 245 230 L 242 230 Z M 242 224.359375 " clip-rule="nonzero"/></clipPath><clipPath id="e89050205b"><path d="M 234 224.359375 L 238 224.359375 L 238 230 L 234 230 Z M 234 224.359375 " clip-rule="nonzero"/></clipPath><clipPath id="156c42e113"><path d="M 202 224.359375 L 206 224.359375 L 206 229 L 202 229 Z M 202 224.359375 " clip-rule="nonzero"/></clipPath><clipPath id="a47ff8dee8"><path d="M 198 224.359375 L 202 224.359375 L 202 229 L 198 229 Z M 198 224.359375 " clip-rule="nonzero"/></clipPath><clipPath id="068764d818"><path d="M 190 224.359375 L 194 224.359375 L 194 229 L 190 229 Z M 190 224.359375 " clip-rule="nonzero"/></clipPath><clipPath id="899f707151"><path d="M 194 224.359375 L 198 224.359375 L 198 229 L 194 229 Z M 194 224.359375 " clip-rule="nonzero"/></clipPath><clipPath id="9bb6f252e9"><path d="M 214 224.359375 L 218 224.359375 L 218 229 L 214 229 Z M 214 224.359375 " clip-rule="nonzero"/></clipPath><clipPath id="c713f5b081"><path d="M 206 224.359375 L 210 224.359375 L 210 229 L 206 229 Z M 206 224.359375 " clip-rule="nonzero"/></clipPath><clipPath id="c8f7247267"><path d="M 218 224.359375 L 222 224.359375 L 222 230 L 218 230 Z M 218 224.359375 " clip-rule="nonzero"/></clipPath><clipPath id="5a33394cb6"><path d="M 210 224.359375 L 214 224.359375 L 214 229 L 210 229 Z M 210 224.359375 " clip-rule="nonzero"/></clipPath><clipPath id="e520e01f68"><path d="M 271 224.359375 L 273 224.359375 L 273 230 L 271 230 Z M 271 224.359375 " clip-rule="nonzero"/></clipPath><clipPath id="7b5d848bc9"><path d="M 303 224.359375 L 305 224.359375 L 305 230 L 303 230 Z M 303 224.359375 " clip-rule="nonzero"/></clipPath><clipPath id="2fb56654bd"><path d="M 299 224.359375 L 301 224.359375 L 301 230 L 299 230 Z M 299 224.359375 " clip-rule="nonzero"/></clipPath><clipPath id="0dc3c5cf10"><path d="M 295 224.359375 L 297 224.359375 L 297 230 L 295 230 Z M 295 224.359375 " clip-rule="nonzero"/></clipPath><clipPath id="f924a048e0"><path d="M 311.589844 224.359375 L 312.039062 224.359375 L 312.039062 229.9375 L 311.589844 229.9375 Z M 311.589844 224.359375 " clip-rule="nonzero"/></clipPath><clipPath id="313aacd67b"><path d="M 291 224.359375 L 293 224.359375 L 293 230 L 291 230 Z M 291 224.359375 " clip-rule="nonzero"/></clipPath><clipPath id="f8abeac1db"><path d="M 54.039062 224.359375 L 190 224.359375 L 190 241.609375 L 54.039062 241.609375 Z M 54.039062 224.359375 " clip-rule="nonzero"/></clipPath><clipPath id="a6cbc161c5"><path d="M 307 224.359375 L 309 224.359375 L 309 230 L 307 230 Z M 307 224.359375 " clip-rule="nonzero"/></clipPath><clipPath id="e615702270"><path d="M 259 224.359375 L 261 224.359375 L 261 230 L 259 230 Z M 259 224.359375 " clip-rule="nonzero"/></clipPath><clipPath id="0aa2b6aae2"><path d="M 263 224.359375 L 265 224.359375 L 265 230 L 263 230 Z M 263 224.359375 " clip-rule="nonzero"/></clipPath><clipPath id="4443c17f4e"><path d="M 267 224.359375 L 269 224.359375 L 269 230 L 267 230 Z M 267 224.359375 " clip-rule="nonzero"/></clipPath><clipPath id="cfa84d1d94"><path d="M 255 224.359375 L 257 224.359375 L 257 230 L 255 230 Z M 255 224.359375 " clip-rule="nonzero"/></clipPath><clipPath id="91f6b011b1"><path d="M 283 224.359375 L 285 224.359375 L 285 230 L 283 230 Z M 283 224.359375 " clip-rule="nonzero"/></clipPath><clipPath id="53216ae17e"><path d="M 287 224.359375 L 289 224.359375 L 289 230 L 287 230 Z M 287 224.359375 " clip-rule="nonzero"/></clipPath><clipPath id="62af293a5b"><path d="M 279 224.359375 L 281 224.359375 L 281 230 L 279 230 Z M 279 224.359375 " clip-rule="nonzero"/></clipPath><clipPath id="1c33af54c0"><path d="M 275 224.359375 L 277 224.359375 L 277 230 L 275 230 Z M 275 224.359375 " clip-rule="nonzero"/></clipPath></defs><rect x="-37.5" fill="url(#4a19225c9f)" width="450" y="-37.499999" height="449.999989"/><g fill="#ffffff" fill-opacity="1"><g transform="translate(53.068686, 196.910013)"><g><path d="M 16.03125 -38 C 21.113281 -38 24.796875 -36.566406 27.078125 -33.703125 C 28.691406 -31.234375 29.5 -28.664062 29.5 -26 L 29.5 -25.46875 C 29.5 -22.394531 28.648438 -19.695312 26.953125 -17.375 C 24.660156 -14.28125 20.125 -12.847656 13.34375 -13.078125 L 9.96875 -13.078125 L 9.96875 -20.203125 L 16.84375 -20.203125 C 19.539062 -21.179688 20.890625 -23.023438 20.890625 -25.734375 L 20.890625 -26.421875 C 20.285156 -29.367188 18.664062 -30.898438 16.03125 -31.015625 L 9.96875 -31.015625 L 9.96875 -38 Z M 8.59375 0 L 0 0 L 0 -37.890625 L 8.59375 -37.890625 Z M 8.59375 0 "/></g></g><g transform="translate(85.183919, 196.910013)"><g><path d="M 14.609375 -6.75 L 14.875 -7.0625 C 16.3125 -7.289062 17.566406 -7.992188 18.640625 -9.171875 C 19.960938 -10.597656 20.625 -12.320312 20.625 -14.34375 C 20.625 -16.382812 19.960938 -18.125 18.640625 -19.5625 C 17.546875 -20.726562 16.28125 -21.421875 14.84375 -21.640625 L 14.609375 -21.90625 L 14.609375 -28.6875 L 14.984375 -28.984375 C 18.242188 -28.710938 21.082031 -27.304688 23.5 -24.765625 C 26.164062 -21.910156 27.5 -18.472656 27.5 -14.453125 C 27.5 -10.421875 26.164062 -6.992188 23.5 -4.171875 C 21.050781 -1.585938 18.148438 -0.171875 14.796875 0.078125 L 14.609375 -0.1875 Z M 4.03125 -4.171875 C 1.34375 -6.992188 0 -10.421875 0 -14.453125 C 0 -18.472656 1.34375 -21.910156 4.03125 -24.765625 C 6.476562 -27.328125 9.363281 -28.734375 12.6875 -28.984375 L 12.921875 -28.71875 L 12.921875 -21.8125 L 12.765625 -21.625 C 11.367188 -21.394531 10.144531 -20.707031 9.09375 -19.5625 C 7.78125 -18.125 7.125 -16.382812 7.125 -14.34375 C 7.125 -12.320312 7.78125 -10.597656 9.09375 -9.171875 C 10.113281 -8.046875 11.3125 -7.363281 12.6875 -7.125 L 12.921875 -6.71875 L 12.921875 -0.1875 L 12.6875 0.046875 C 9.363281 -0.191406 6.476562 -1.597656 4.03125 -4.171875 Z M 4.03125 -4.171875 "/></g></g><g transform="translate(115.822588, 196.910013)"><g><path d="M 8.09375 -28.953125 L 13.234375 -14.8125 L 13.234375 0 L 10.46875 0 L -0.078125 -28.953125 Z M 46.515625 -28.953125 L 35.9375 0.03125 L 33.0625 0.03125 L 33.0625 -14.5 L 38.34375 -28.953125 Z M 27.296875 -26.234375 L 31.453125 -14.8125 L 31.453125 0 L 28.6875 0 L 23.203125 -15.03125 L 17.71875 0.03125 L 14.84375 0.03125 L 14.84375 -14.5 L 19.109375 -26.234375 Z M 27.296875 -26.234375 "/></g></g><g transform="translate(163.257156, 196.910013)"><g><path d="M 23.5 -4.171875 C 21.050781 -1.585938 18.148438 -0.171875 14.796875 0.078125 L 14.609375 -0.1875 L 14.609375 -6.75 L 14.875 -7.0625 C 16.3125 -7.289062 17.566406 -7.992188 18.640625 -9.171875 C 18.710938 -9.265625 18.785156 -9.34375 18.859375 -9.40625 L 23.8125 -4.53125 C 23.707031 -4.40625 23.601562 -4.285156 23.5 -4.171875 Z M 20.0625 -17.328125 C 19.75 -18.128906 19.273438 -18.875 18.640625 -19.5625 C 17.546875 -20.726562 16.28125 -21.421875 14.84375 -21.640625 L 14.609375 -21.90625 L 14.609375 -28.6875 L 14.984375 -28.984375 C 18.242188 -28.710938 21.164062 -27.304688 23.75 -24.765625 C 25.78125 -22.617188 26.914062 -20.140625 27.15625 -17.328125 C 27.226562 -15.203125 27.070312 -13.425781 26.6875 -12 L 7.46875 -12 C 7.78125 -10.957031 8.320312 -10.015625 9.09375 -9.171875 C 10.113281 -8.046875 11.3125 -7.363281 12.6875 -7.125 L 12.921875 -6.71875 L 12.921875 -0.1875 L 12.6875 0.046875 C 9.363281 -0.191406 6.476562 -1.597656 4.03125 -4.171875 C 1.34375 -6.992188 0 -10.421875 0 -14.453125 C 0 -18.472656 1.34375 -21.910156 4.03125 -24.765625 C 6.476562 -27.328125 9.363281 -28.734375 12.6875 -28.984375 L 12.921875 -28.71875 L 12.921875 -21.8125 L 12.765625 -21.625 C 11.367188 -21.394531 10.144531 -20.707031 9.09375 -19.5625 C 8.476562 -18.875 8.003906 -18.128906 7.671875 -17.328125 Z M 20.0625 -17.328125 "/></g></g><g transform="translate(193.895825, 196.910013)"><g><path d="M 14.953125 -21.984375 C 13.285156 -21.984375 11.890625 -21.519531 10.765625 -20.59375 L 10.359375 -20.828125 L 10.390625 -27.5 L 10.65625 -27.890625 C 12.21875 -28.628906 13.648438 -29 14.953125 -29 Z M 8.59375 -28.953125 L 8.59375 -0.265625 L 8.328125 0 L 0.265625 0 L 0 -0.265625 L 0 -28.953125 Z M 8.59375 -28.953125 "/></g></g><g transform="translate(211.113598, 196.910013)"><g><path d="M 16.03125 -38 C 21.113281 -38 24.796875 -36.566406 27.078125 -33.703125 C 28.691406 -31.234375 29.5 -28.664062 29.5 -26 L 29.5 -25.46875 C 29.5 -22.394531 28.648438 -19.695312 26.953125 -17.375 C 24.660156 -14.28125 20.125 -12.847656 13.34375 -13.078125 L 9.96875 -13.078125 L 9.96875 -20.203125 L 16.84375 -20.203125 C 19.539062 -21.179688 20.890625 -23.023438 20.890625 -25.734375 L 20.890625 -26.421875 C 20.285156 -29.367188 18.664062 -30.898438 16.03125 -31.015625 L 9.96875 -31.015625 L 9.96875 -38 Z M 8.59375 0 L 0 0 L 0 -37.890625 L 8.59375 -37.890625 Z M 8.59375 0 "/></g></g><g transform="translate(243.22883, 196.910013)"><g><path d="M 8.59375 0 L 0 0 L 0 -37.890625 L 8.59375 -37.890625 Z M 8.59375 0 "/></g></g><g transform="translate(254.487618, 196.910013)"><g><path d="M 14.375 -28.90625 C 15.863281 -28.9375 17.03125 -28.875 17.875 -28.71875 C 23.570312 -27.289062 26.5 -24.148438 26.65625 -19.296875 L 26.65625 -0.390625 L 26.15625 0.046875 L 18.4375 0.046875 L 18.0625 -0.3125 L 18.0625 -18.609375 C 17.832031 -20.390625 16.601562 -21.375 14.375 -21.5625 Z M 16.421875 -12.78125 L 15.875 -12.265625 C 14.925781 -12.367188 13.953125 -12.347656 12.953125 -12.203125 C 11.171875 -12.023438 9.726562 -11.597656 8.625 -10.921875 C 7.519531 -10.253906 6.96875 -9.296875 6.96875 -8.046875 C 6.96875 -7.148438 7.5625 -6.453125 8.75 -5.953125 C 9.820312 -5.503906 11.066406 -5.265625 12.484375 -5.234375 C 13.898438 -5.203125 15.066406 -5.320312 15.984375 -5.59375 L 16.421875 -5.171875 L 16.421875 -0.078125 C 15.828125 0.117188 14.300781 0.242188 11.84375 0.296875 C 10.101562 0.273438 8.523438 0.117188 7.109375 -0.171875 C 5.691406 -0.460938 4.359375 -1.03125 3.109375 -1.875 C 2.585938 -2.207031 2.15625 -2.578125 1.8125 -2.984375 C 1.46875 -3.398438 1.195312 -3.785156 1 -4.140625 C 0.8125 -4.492188 0.660156 -4.828125 0.546875 -5.140625 C 0.285156 -5.929688 0.15625 -6.8125 0.15625 -7.78125 C 0.15625 -10.976562 1.238281 -13.410156 3.40625 -15.078125 C 5.582031 -16.753906 8.5 -17.675781 12.15625 -17.84375 C 13.644531 -18.007812 14.925781 -18.03125 16 -17.90625 L 16.421875 -17.515625 Z M 12.875 -21.515625 C 10.582031 -21.285156 9.394531 -20.582031 9.3125 -19.40625 L 8.65625 -19.09375 L 2.265625 -19.109375 L 1.796875 -19.59375 C 1.773438 -23.9375 4.191406 -26.898438 9.046875 -28.484375 C 9.785156 -28.765625 11.0625 -28.882812 12.875 -28.84375 Z M 12.875 -21.515625 "/></g></g><g transform="translate(283.966132, 196.910013)"><g><path d="M 20.125 -28.953125 L 28.296875 -28.953125 L 19.171875 -3.875 L 14.953125 -14.734375 Z M 18.5625 -0.796875 L 18.5625 1.875 C 18.457031 4.613281 17.878906 6.59375 16.828125 7.8125 C 15.765625 9.71875 13.671875 10.742188 10.546875 10.890625 L 5.796875 10.890625 L 5.484375 10.46875 L 5.515625 4.25 L 5.875 3.90625 L 8.09375 3.84375 C 9.59375 3.738281 10.398438 2.992188 10.515625 1.609375 L 10.515625 0 L 10.46875 0 L -0.078125 -28.953125 L 8.09375 -28.953125 Z M 18.5625 -0.796875 "/></g></g></g><path fill="#ffcb0f" d="M 229.179688 234.4375 L 226.882812 234.386719 L 226.882812 237.851562 L 229.179688 237.796875 L 229.179688 234.4375 " fill-opacity="1" fill-rule="nonzero"/><path fill="#ffcb0f" d="M 225.1875 234.347656 L 222.890625 234.296875 L 222.890625 237.941406 L 225.1875 237.890625 L 225.1875 234.347656 " fill-opacity="1" fill-rule="nonzero"/><path fill="#ffcb0f" d="M 221.191406 234.257812 L 218.773438 234.203125 L 218.773438 238.035156 L 221.191406 237.980469 L 221.191406 234.257812 " fill-opacity="1" fill-rule="nonzero"/><path fill="#ffcb0f" d="M 233.054688 234.527344 L 230.878906 234.476562 L 230.878906 237.757812 L 233.054688 237.710938 L 233.054688 234.527344 " fill-opacity="1" fill-rule="nonzero"/><path fill="#ffcb0f" d="M 241.042969 234.707031 L 238.984375 234.660156 L 238.984375 237.574219 L 241.042969 237.527344 L 241.042969 234.707031 " fill-opacity="1" fill-rule="nonzero"/><path fill="#ffcb0f" d="M 237.046875 234.617188 L 234.992188 234.570312 L 234.992188 237.667969 L 237.046875 237.621094 L 237.046875 234.617188 " fill-opacity="1" fill-rule="nonzero"/><path fill="#ffcb0f" d="M 217.320312 234.167969 L 214.78125 234.109375 L 214.78125 238.125 L 217.320312 238.066406 L 217.320312 234.167969 " fill-opacity="1" fill-rule="nonzero"/><path fill="#ffcb0f" d="M 248.910156 234.886719 L 247.09375 234.84375 L 247.09375 237.390625 L 248.910156 237.351562 L 248.910156 234.886719 " fill-opacity="1" fill-rule="nonzero"/><path fill="#ffcb0f" d="M 197.472656 233.71875 L 194.570312 233.652344 L 194.570312 238.582031 L 197.472656 238.519531 L 197.472656 233.71875 " fill-opacity="1" fill-rule="nonzero"/><path fill="#ffcb0f" d="M 201.464844 233.808594 L 198.683594 233.746094 L 198.683594 238.488281 L 201.464844 238.425781 L 201.464844 233.808594 " fill-opacity="1" fill-rule="nonzero"/><path fill="#ffcb0f" d="M 190.574219 238.675781 L 193.597656 238.605469 L 193.597656 233.628906 L 190.574219 233.5625 L 190.574219 238.675781 " fill-opacity="1" fill-rule="nonzero"/><path fill="#ffcb0f" d="M 213.328125 234.078125 L 210.785156 234.019531 L 210.785156 238.214844 L 213.328125 238.15625 L 213.328125 234.078125 " fill-opacity="1" fill-rule="nonzero"/><path fill="#ffcb0f" d="M 205.460938 233.898438 L 202.679688 233.835938 L 202.679688 238.398438 L 205.460938 238.335938 L 205.460938 233.898438 " fill-opacity="1" fill-rule="nonzero"/><path fill="#ffcb0f" d="M 209.332031 233.988281 L 206.671875 233.925781 L 206.671875 238.308594 L 209.332031 238.25 L 209.332031 233.988281 " fill-opacity="1" fill-rule="nonzero"/><path fill="#ffcb0f" d="M 244.914062 234.792969 L 242.980469 234.75 L 242.980469 237.484375 L 244.914062 237.441406 L 244.914062 234.792969 " fill-opacity="1" fill-rule="nonzero"/><path fill="#ffcb0f" d="M 288.484375 235.785156 L 287.398438 235.757812 L 287.398438 236.476562 L 288.484375 236.453125 L 288.484375 235.785156 " fill-opacity="1" fill-rule="nonzero"/><path fill="#ffcb0f" d="M 280.496094 235.601562 L 279.289062 235.574219 L 279.289062 236.660156 L 280.496094 236.632812 L 280.496094 235.601562 " fill-opacity="1" fill-rule="nonzero"/><path fill="#ffcb0f" d="M 292.355469 235.871094 L 291.390625 235.851562 L 291.390625 236.386719 L 292.355469 236.363281 L 292.355469 235.871094 " fill-opacity="1" fill-rule="nonzero"/><path fill="#ffcb0f" d="M 284.488281 235.691406 L 283.402344 235.667969 L 283.402344 236.566406 L 284.488281 236.542969 L 284.488281 235.691406 " fill-opacity="1" fill-rule="nonzero"/><g clip-path="url(#4b9e7d6abb)"><path fill="#ffcb0f" d="M 189.605469 233.539062 L 73.585938 230.90625 L 61.292969 241.609375 L 189.605469 238.695312 L 189.605469 233.539062 " fill-opacity="1" fill-rule="nonzero"/></g><path fill="#ffcb0f" d="M 300.34375 236.054688 L 299.5 236.035156 L 299.5 236.203125 L 300.34375 236.183594 L 300.34375 236.054688 " fill-opacity="1" fill-rule="nonzero"/><path fill="#ffcb0f" d="M 296.351562 235.960938 L 295.507812 235.941406 L 295.507812 236.292969 L 296.351562 236.273438 L 296.351562 235.960938 " fill-opacity="1" fill-rule="nonzero"/><path fill="#ffcb0f" d="M 276.621094 235.515625 L 275.296875 235.484375 L 275.296875 236.75 L 276.621094 236.722656 L 276.621094 235.515625 " fill-opacity="1" fill-rule="nonzero"/><path fill="#ffcb0f" d="M 264.761719 235.246094 L 263.191406 235.210938 L 263.191406 237.027344 L 264.761719 236.992188 L 264.761719 235.246094 " fill-opacity="1" fill-rule="nonzero"/><path fill="#ffcb0f" d="M 260.769531 235.15625 L 259.199219 235.117188 L 259.199219 237.117188 L 260.769531 237.082031 L 260.769531 235.15625 " fill-opacity="1" fill-rule="nonzero"/><path fill="#ffcb0f" d="M 252.902344 234.976562 L 251.089844 234.933594 L 251.089844 237.300781 L 252.902344 237.261719 L 252.902344 234.976562 " fill-opacity="1" fill-rule="nonzero"/><path fill="#ffcb0f" d="M 256.773438 235.0625 L 255.082031 235.027344 L 255.082031 237.210938 L 256.773438 237.171875 L 256.773438 235.0625 " fill-opacity="1" fill-rule="nonzero"/><path fill="#ffcb0f" d="M 268.636719 235.332031 L 267.1875 235.300781 L 267.1875 236.9375 L 268.636719 236.902344 L 268.636719 235.332031 " fill-opacity="1" fill-rule="nonzero"/><path fill="#ffcb0f" d="M 272.628906 235.425781 L 271.300781 235.394531 L 271.300781 236.84375 L 272.628906 236.8125 L 272.628906 235.425781 " fill-opacity="1" fill-rule="nonzero"/><g clip-path="url(#7bce8a7a61)"><path fill="#ffffff" d="M 225.1875 224.359375 L 222.890625 224.359375 L 222.890625 229.027344 L 225.1875 229.050781 L 225.1875 224.359375 " fill-opacity="1" fill-rule="nonzero"/></g><g clip-path="url(#53ece05ecb)"><path fill="#ffffff" d="M 252.902344 224.359375 L 251.089844 224.359375 L 251.089844 229.3125 L 252.902344 229.328125 L 252.902344 224.359375 " fill-opacity="1" fill-rule="nonzero"/></g><g clip-path="url(#af7ebee0a1)"><path fill="#ffffff" d="M 229.179688 224.359375 L 226.882812 224.359375 L 226.882812 229.066406 L 229.179688 229.089844 L 229.179688 224.359375 " fill-opacity="1" fill-rule="nonzero"/></g><g clip-path="url(#22bec13be4)"><path fill="#ffffff" d="M 233.054688 224.359375 L 230.878906 224.359375 L 230.878906 229.105469 L 233.054688 229.128906 L 233.054688 224.359375 " fill-opacity="1" fill-rule="nonzero"/></g><g clip-path="url(#1d0c85615e)"><path fill="#ffffff" d="M 248.910156 224.359375 L 247.09375 224.359375 L 247.09375 229.269531 L 248.910156 229.289062 L 248.910156 224.359375 " fill-opacity="1" fill-rule="nonzero"/></g><g clip-path="url(#9373374772)"><path fill="#ffffff" d="M 241.042969 224.359375 L 238.984375 224.359375 L 238.984375 229.1875 L 241.042969 229.210938 L 241.042969 224.359375 " fill-opacity="1" fill-rule="nonzero"/></g><g clip-path="url(#ea06c3754a)"><path fill="#ffffff" d="M 244.914062 224.359375 L 242.980469 224.359375 L 242.980469 229.230469 L 244.914062 229.25 L 244.914062 224.359375 " fill-opacity="1" fill-rule="nonzero"/></g><g clip-path="url(#e89050205b)"><path fill="#ffffff" d="M 237.046875 224.359375 L 234.992188 224.359375 L 234.992188 229.148438 L 237.046875 229.167969 L 237.046875 224.359375 " fill-opacity="1" fill-rule="nonzero"/></g><g clip-path="url(#156c42e113)"><path fill="#ffffff" d="M 205.460938 224.359375 L 202.679688 224.359375 L 202.679688 228.824219 L 205.460938 228.851562 L 205.460938 224.359375 " fill-opacity="1" fill-rule="nonzero"/></g><g clip-path="url(#a47ff8dee8)"><path fill="#ffffff" d="M 201.464844 224.359375 L 198.683594 224.359375 L 198.683594 228.78125 L 201.464844 228.808594 L 201.464844 224.359375 " fill-opacity="1" fill-rule="nonzero"/></g><g clip-path="url(#068764d818)"><path fill="#ffffff" d="M 190.574219 228.699219 L 193.597656 228.730469 L 193.597656 224.359375 L 190.574219 224.359375 L 190.574219 228.699219 " fill-opacity="1" fill-rule="nonzero"/></g><g clip-path="url(#899f707151)"><path fill="#ffffff" d="M 197.472656 224.359375 L 194.570312 224.359375 L 194.570312 228.742188 L 197.472656 228.769531 L 197.472656 224.359375 " fill-opacity="1" fill-rule="nonzero"/></g><g clip-path="url(#9bb6f252e9)"><path fill="#ffffff" d="M 217.320312 224.359375 L 214.78125 224.359375 L 214.78125 228.945312 L 217.320312 228.96875 L 217.320312 224.359375 " fill-opacity="1" fill-rule="nonzero"/></g><g clip-path="url(#c713f5b081)"><path fill="#ffffff" d="M 209.332031 224.359375 L 206.671875 224.359375 L 206.671875 228.863281 L 209.332031 228.890625 L 209.332031 224.359375 " fill-opacity="1" fill-rule="nonzero"/></g><g clip-path="url(#c8f7247267)"><path fill="#ffffff" d="M 221.191406 224.359375 L 218.773438 224.359375 L 218.773438 228.984375 L 221.191406 229.007812 L 221.191406 224.359375 " fill-opacity="1" fill-rule="nonzero"/></g><g clip-path="url(#5a33394cb6)"><path fill="#ffffff" d="M 213.328125 224.359375 L 210.785156 224.359375 L 210.785156 228.90625 L 213.328125 228.929688 L 213.328125 224.359375 " fill-opacity="1" fill-rule="nonzero"/></g><g clip-path="url(#e520e01f68)"><path fill="#ffffff" d="M 272.628906 224.359375 L 271.300781 224.359375 L 271.300781 229.515625 L 272.628906 229.527344 L 272.628906 224.359375 " fill-opacity="1" fill-rule="nonzero"/></g><g clip-path="url(#7b5d848bc9)"><path fill="#ffffff" d="M 304.214844 224.359375 L 303.492188 224.359375 L 303.492188 229.839844 L 304.214844 229.847656 L 304.214844 224.359375 " fill-opacity="1" fill-rule="nonzero"/></g><g clip-path="url(#2fb56654bd)"><path fill="#ffffff" d="M 300.34375 224.359375 L 299.5 224.359375 L 299.5 229.800781 L 300.34375 229.808594 L 300.34375 224.359375 " fill-opacity="1" fill-rule="nonzero"/></g><g clip-path="url(#0dc3c5cf10)"><path fill="#ffffff" d="M 296.351562 224.359375 L 295.507812 224.359375 L 295.507812 229.761719 L 296.351562 229.769531 L 296.351562 224.359375 " fill-opacity="1" fill-rule="nonzero"/></g><g clip-path="url(#f924a048e0)"><path fill="#ffffff" d="M 311.605469 224.359375 L 311.605469 229.921875 L 312.039062 229.925781 L 312.039062 224.359375 L 311.605469 224.359375 " fill-opacity="1" fill-rule="nonzero"/></g><g clip-path="url(#313aacd67b)"><path fill="#ffffff" d="M 292.355469 224.359375 L 291.390625 224.359375 L 291.390625 229.71875 L 292.355469 229.726562 L 292.355469 224.359375 " fill-opacity="1" fill-rule="nonzero"/></g><g clip-path="url(#f8abeac1db)"><path fill="#ffffff" d="M 189.605469 224.359375 L 69.480469 224.359375 L 54.039062 241.414062 L 70.414062 227.488281 L 189.605469 228.691406 L 189.605469 224.359375 " fill-opacity="1" fill-rule="nonzero"/></g><g clip-path="url(#a6cbc161c5)"><path fill="#ffffff" d="M 308.210938 224.359375 L 307.609375 224.359375 L 307.609375 229.882812 L 308.210938 229.886719 L 308.210938 224.359375 " fill-opacity="1" fill-rule="nonzero"/></g><g clip-path="url(#e615702270)"><path fill="#ffffff" d="M 260.769531 224.359375 L 259.199219 224.359375 L 259.199219 229.394531 L 260.769531 229.410156 L 260.769531 224.359375 " fill-opacity="1" fill-rule="nonzero"/></g><g clip-path="url(#0aa2b6aae2)"><path fill="#ffffff" d="M 264.761719 224.359375 L 263.191406 224.359375 L 263.191406 229.433594 L 264.761719 229.449219 L 264.761719 224.359375 " fill-opacity="1" fill-rule="nonzero"/></g><g clip-path="url(#4443c17f4e)"><path fill="#ffffff" d="M 268.636719 224.359375 L 267.1875 224.359375 L 267.1875 229.472656 L 268.636719 229.488281 L 268.636719 224.359375 " fill-opacity="1" fill-rule="nonzero"/></g><g clip-path="url(#cfa84d1d94)"><path fill="#ffffff" d="M 256.773438 224.359375 L 255.082031 224.359375 L 255.082031 229.351562 L 256.773438 229.367188 L 256.773438 224.359375 " fill-opacity="1" fill-rule="nonzero"/></g><g clip-path="url(#91f6b011b1)"><path fill="#ffffff" d="M 284.488281 224.359375 L 283.402344 224.359375 L 283.402344 229.636719 L 284.488281 229.648438 L 284.488281 224.359375 " fill-opacity="1" fill-rule="nonzero"/></g><g clip-path="url(#53216ae17e)"><path fill="#ffffff" d="M 288.484375 224.359375 L 287.398438 224.359375 L 287.398438 229.679688 L 288.484375 229.6875 L 288.484375 224.359375 " fill-opacity="1" fill-rule="nonzero"/></g><g clip-path="url(#62af293a5b)"><path fill="#ffffff" d="M 280.496094 224.359375 L 279.289062 224.359375 L 279.289062 229.597656 L 280.496094 229.609375 L 280.496094 224.359375 " fill-opacity="1" fill-rule="nonzero"/></g><g clip-path="url(#1c33af54c0)"><path fill="#ffffff" d="M 276.621094 224.359375 L 275.296875 224.359375 L 275.296875 229.554688 L 276.621094 229.570312 L 276.621094 224.359375 " fill-opacity="1" fill-rule="nonzero"/></g><g fill="#ffcb0f" fill-opacity="1"><g transform="translate(237.152421, 215.409653)"><g><path d="M 5.21875 -11.671875 L 12.21875 -11.671875 C 12.632812 -11.671875 12.960938 -11.546875 13.203125 -11.296875 C 13.453125 -11.046875 13.578125 -10.726562 13.578125 -10.34375 C 13.578125 -10.300781 13.578125 -10.25 13.578125 -10.1875 C 13.578125 -10.125 13.566406 -10.0625 13.546875 -10 L 13.3125 -8.984375 L 11.75 -8.984375 L 11.84375 -9.453125 C 11.851562 -9.472656 11.859375 -9.492188 11.859375 -9.515625 C 11.859375 -9.546875 11.859375 -9.570312 11.859375 -9.59375 C 11.859375 -9.757812 11.800781 -9.890625 11.6875 -9.984375 C 11.582031 -10.085938 11.445312 -10.140625 11.28125 -10.140625 L 5.53125 -10.140625 C 5.34375 -10.140625 5.164062 -10.070312 5 -9.9375 C 4.832031 -9.8125 4.726562 -9.648438 4.6875 -9.453125 L 3.140625 -2.21875 C 3.128906 -2.195312 3.125 -2.171875 3.125 -2.140625 C 3.125 -2.109375 3.125 -2.082031 3.125 -2.0625 C 3.125 -1.90625 3.175781 -1.773438 3.28125 -1.671875 C 3.394531 -1.578125 3.535156 -1.53125 3.703125 -1.53125 L 9.453125 -1.53125 C 9.648438 -1.53125 9.832031 -1.597656 10 -1.734375 C 10.164062 -1.867188 10.269531 -2.03125 10.3125 -2.21875 L 10.40625 -2.6875 L 11.984375 -2.6875 L 11.78125 -1.671875 C 11.71875 -1.359375 11.582031 -1.078125 11.375 -0.828125 C 11.164062 -0.578125 10.921875 -0.375 10.640625 -0.21875 C 10.359375 -0.0703125 10.0625 0 9.75 0 L 2.75 0 C 2.34375 0 2.015625 -0.125 1.765625 -0.375 C 1.515625 -0.625 1.390625 -0.9375 1.390625 -1.3125 C 1.390625 -1.425781 1.40625 -1.546875 1.4375 -1.671875 L 3.203125 -10 C 3.273438 -10.3125 3.410156 -10.59375 3.609375 -10.84375 C 3.816406 -11.09375 4.054688 -11.289062 4.328125 -11.4375 C 4.609375 -11.59375 4.90625 -11.671875 5.21875 -11.671875 Z M 5.21875 -11.671875 "/></g></g></g><g fill="#ffcb0f" fill-opacity="1"><g transform="translate(249.397907, 215.409653)"><g><path d="M 3.5625 -11.671875 L 5.140625 -11.671875 L 3 -1.53125 L 11.015625 -1.53125 L 10.6875 0 L 1.078125 0 Z M 3.5625 -11.671875 "/></g></g></g><g fill="#ffcb0f" fill-opacity="1"><g transform="translate(260.114589, 215.409653)"><g><path d="M 3.5625 -11.671875 L 5.140625 -11.671875 L 3.140625 -2.21875 C 3.128906 -2.195312 3.125 -2.171875 3.125 -2.140625 C 3.125 -2.109375 3.125 -2.082031 3.125 -2.0625 C 3.125 -1.90625 3.175781 -1.773438 3.28125 -1.671875 C 3.394531 -1.578125 3.535156 -1.53125 3.703125 -1.53125 L 9.453125 -1.53125 C 9.648438 -1.53125 9.832031 -1.597656 10 -1.734375 C 10.164062 -1.867188 10.269531 -2.03125 10.3125 -2.21875 L 12.3125 -11.671875 L 13.890625 -11.671875 L 11.78125 -1.671875 C 11.71875 -1.367188 11.582031 -1.09375 11.375 -0.84375 C 11.164062 -0.59375 10.914062 -0.390625 10.625 -0.234375 C 10.34375 -0.078125 10.050781 0 9.75 0 L 2.75 0 C 2.351562 0 2.03125 -0.128906 1.78125 -0.390625 C 1.53125 -0.648438 1.40625 -0.960938 1.40625 -1.328125 C 1.40625 -1.378906 1.40625 -1.429688 1.40625 -1.484375 C 1.414062 -1.546875 1.425781 -1.609375 1.4375 -1.671875 Z M 3.5625 -11.671875 "/></g></g></g><g fill="#ffcb0f" fill-opacity="1"><g transform="translate(272.599898, 215.409653)"><g><path d="M 3.5625 -11.671875 L 12.21875 -11.671875 C 12.632812 -11.671875 12.960938 -11.546875 13.203125 -11.296875 C 13.453125 -11.046875 13.578125 -10.726562 13.578125 -10.34375 C 13.578125 -10.300781 13.578125 -10.25 13.578125 -10.1875 C 13.578125 -10.125 13.566406 -10.0625 13.546875 -10 L 12.984375 -7.390625 C 12.921875 -7.035156 12.757812 -6.71875 12.5 -6.4375 C 12.238281 -6.15625 11.929688 -5.953125 11.578125 -5.828125 C 11.816406 -5.734375 12.003906 -5.578125 12.140625 -5.359375 C 12.285156 -5.148438 12.359375 -4.90625 12.359375 -4.625 C 12.359375 -4.5 12.34375 -4.378906 12.3125 -4.265625 L 11.78125 -1.671875 C 11.71875 -1.359375 11.582031 -1.078125 11.375 -0.828125 C 11.164062 -0.578125 10.921875 -0.375 10.640625 -0.21875 C 10.359375 -0.0703125 10.0625 0 9.75 0 L 1.078125 0 Z M 3.75 -5.0625 L 3 -1.53125 L 9.453125 -1.53125 C 9.648438 -1.53125 9.832031 -1.597656 10 -1.734375 C 10.164062 -1.867188 10.269531 -2.03125 10.3125 -2.21875 L 10.703125 -4.0625 C 10.710938 -4.101562 10.71875 -4.140625 10.71875 -4.171875 C 10.71875 -4.203125 10.71875 -4.234375 10.71875 -4.265625 C 10.71875 -4.492188 10.640625 -4.679688 10.484375 -4.828125 C 10.335938 -4.984375 10.148438 -5.0625 9.921875 -5.0625 Z M 4.078125 -6.59375 L 10.25 -6.59375 C 10.519531 -6.59375 10.773438 -6.691406 11.015625 -6.890625 C 11.253906 -7.097656 11.398438 -7.335938 11.453125 -7.609375 L 11.84375 -9.453125 C 11.851562 -9.472656 11.859375 -9.492188 11.859375 -9.515625 C 11.859375 -9.546875 11.859375 -9.570312 11.859375 -9.59375 C 11.859375 -9.757812 11.800781 -9.890625 11.6875 -9.984375 C 11.582031 -10.085938 11.445312 -10.140625 11.28125 -10.140625 L 4.828125 -10.140625 Z M 4.078125 -6.59375 "/></g></g></g></svg>